# Blender 3.5.0
# www.blender.org
o link6_new_phy
v 0.000000 0.041023 0.000000
v 0.053173 0.041023 -0.000000
v -0.000000 0.039625 -0.010618
v 0.053173 0.039625 -0.010618
v -0.000000 0.035527 -0.020512
v 0.053173 0.035527 -0.020512
v -0.000000 0.029008 -0.029008
v 0.053173 0.029008 -0.029008
v -0.000000 0.020512 -0.035527
v 0.053173 0.020512 -0.035527
v -0.000000 0.010618 -0.039625
v 0.053173 0.010618 -0.039625
v -0.000000 0.000000 -0.041023
v 0.053173 0.000000 -0.041023
v -0.000000 -0.010618 -0.039625
v 0.053173 -0.010618 -0.039625
v -0.000000 -0.020512 -0.035527
v 0.053173 -0.020512 -0.035527
v -0.000000 -0.029008 -0.029008
v 0.053173 -0.029008 -0.029008
v -0.000000 -0.035527 -0.020512
v 0.053173 -0.035527 -0.020512
v -0.000000 -0.039625 -0.010618
v 0.053173 -0.039625 -0.010618
v -0.000000 -0.041023 -0.000000
v 0.053173 -0.041023 -0.000000
v 0.000000 -0.039625 0.010618
v 0.053173 -0.039625 0.010618
v 0.000000 -0.035527 0.020512
v 0.053173 -0.035527 0.020511
v 0.000000 -0.029008 0.029008
v 0.053173 -0.029008 0.029008
v 0.000000 -0.020512 0.035527
v 0.053173 -0.020512 0.035527
v 0.000000 -0.010618 0.039625
v 0.053173 -0.010618 0.039625
v 0.000000 -0.000000 0.041023
v 0.053173 -0.000000 0.041023
v 0.000000 0.010618 0.039625
v 0.053173 0.010618 0.039625
v 0.000000 0.020511 0.035527
v 0.053173 0.020511 0.035527
v 0.000000 0.029008 0.029008
v 0.053173 0.029008 0.029008
v 0.000000 0.035527 0.020512
v 0.053173 0.035527 0.020512
v 0.000000 0.039625 0.010618
v 0.053173 0.039625 0.010618
v 0.109636 0.033960 -0.009099
v 0.109636 0.035158 -0.000000
v 0.109636 0.030447 -0.017579
v 0.109636 0.024860 -0.024860
v 0.109636 0.017579 -0.030447
v 0.109636 0.009099 -0.033960
v 0.109636 0.000000 -0.035158
v 0.109636 -0.009099 -0.033960
v 0.109636 -0.017579 -0.030447
v 0.109636 -0.024860 -0.024860
v 0.109636 -0.030447 -0.017579
v 0.109636 -0.033960 -0.009099
v 0.109636 -0.035158 -0.000000
v 0.109636 -0.033960 0.009099
v 0.109636 -0.030447 0.017579
v 0.109636 -0.024860 0.024860
v 0.109636 -0.017579 0.030447
v 0.109636 -0.009099 0.033960
v 0.109636 -0.000000 0.035158
v 0.109636 0.009099 0.033960
v 0.109636 0.017579 0.030447
v 0.109636 0.024860 0.024860
v 0.109636 0.030447 0.017579
v 0.109636 0.033960 0.009099
v 0.128558 0.034319 -0.009196
v 0.128558 0.035530 -0.000000
v 0.128558 0.030770 -0.017765
v 0.128558 0.025123 -0.025123
v 0.128558 0.017765 -0.030770
v 0.128558 0.009196 -0.034319
v 0.128558 0.000000 -0.035530
v 0.128558 -0.009196 -0.034319
v 0.128558 -0.017765 -0.030770
v 0.128558 -0.025123 -0.025123
v 0.128558 -0.030770 -0.017765
v 0.128558 -0.034319 -0.009196
v 0.128558 -0.035530 -0.000000
v 0.128558 -0.034319 0.009196
v 0.128558 -0.030770 0.017765
v 0.128558 -0.025123 0.025123
v 0.128558 -0.017765 0.030770
v 0.128558 -0.009196 0.034319
v 0.128558 -0.000000 0.035530
v 0.128558 0.009196 0.034319
v 0.128558 0.017765 0.030770
v 0.128558 0.025123 0.025123
v 0.128558 0.030770 0.017765
v 0.128558 0.034319 0.009196
v 0.000000 0.041023 0.000000
v -0.000000 0.039625 -0.010618
v -0.000000 0.035527 -0.020512
v -0.000000 0.029008 -0.029008
v -0.000000 0.020512 -0.035527
v -0.000000 0.010618 -0.039625
v -0.000000 0.000000 -0.041023
v -0.000000 -0.010618 -0.039625
v -0.000000 -0.020512 -0.035527
v -0.000000 -0.029008 -0.029008
v -0.000000 -0.035527 -0.020512
v -0.000000 -0.039625 -0.010618
v -0.000000 -0.041023 -0.000000
v 0.000000 -0.039625 0.010618
v 0.000000 -0.035527 0.020512
v 0.000000 -0.029008 0.029008
v 0.000000 -0.020512 0.035527
v 0.000000 -0.010618 0.039625
v 0.000000 -0.000000 0.041023
v 0.000000 0.010618 0.039625
v 0.000000 0.020511 0.035527
v 0.000000 0.029008 0.029008
v 0.000000 0.035527 0.020512
v 0.000000 0.039625 0.010618
v 0.128558 0.034319 -0.009196
v 0.128558 0.035530 -0.000000
v 0.128558 0.030770 -0.017765
v 0.128558 0.025123 -0.025123
v 0.128558 0.017765 -0.030770
v 0.128558 0.009196 -0.034319
v 0.128558 0.000000 -0.035530
v 0.128558 -0.009196 -0.034319
v 0.128558 -0.017765 -0.030770
v 0.128558 -0.025123 -0.025123
v 0.128558 -0.030770 -0.017765
v 0.128558 -0.034319 -0.009196
v 0.128558 -0.035530 -0.000000
v 0.128558 -0.034319 0.009196
v 0.128558 -0.030770 0.017765
v 0.128558 -0.025123 0.025123
v 0.128558 -0.017765 0.030770
v 0.128558 -0.009196 0.034319
v 0.128558 -0.000000 0.035530
v 0.128558 0.009196 0.034319
v 0.128558 0.017765 0.030770
v 0.128558 0.025123 0.025123
v 0.128558 0.030770 0.017765
v 0.128558 0.034319 0.009196
vn 0.0515 0.9987 -0.0000
vn -0.0000 0.9659 -0.2588
vn -0.0000 1.0000 -0.0000
vn 0.0515 0.9646 -0.2585
vn -0.0000 0.8660 -0.5000
vn 0.0515 0.8649 -0.4993
vn -0.0000 0.7071 -0.7071
vn 0.0515 0.7062 -0.7062
vn -0.0000 0.5000 -0.8660
vn 0.0515 0.4993 -0.8649
vn -0.0000 0.2588 -0.9659
vn 0.0515 0.2585 -0.9646
vn -0.0000 -0.0000 -1.0000
vn 0.0515 -0.0000 -0.9987
vn -0.0000 -0.2588 -0.9659
vn 0.0515 -0.2585 -0.9646
vn -0.0000 -0.5000 -0.8660
vn 0.0515 -0.4993 -0.8649
vn -0.0000 -0.7071 -0.7071
vn 0.0515 -0.7062 -0.7062
vn -0.0000 -0.8660 -0.5000
vn 0.0515 -0.8649 -0.4993
vn -0.0000 -0.9659 -0.2588
vn 0.0515 -0.9987 -0.0000
vn -0.0000 -1.0000 -0.0000
vn -0.0000 -0.9659 0.2588
vn 0.0515 -0.9646 0.2585
vn -0.0000 -0.8660 0.5000
vn 0.0515 -0.7062 0.7062
vn -0.0000 -0.7071 0.7071
vn -0.0000 -0.5000 0.8660
vn 0.0515 -0.4993 0.8649
vn -0.0000 -0.2588 0.9659
vn 0.0515 -0.2585 0.9646
vn -0.0000 -0.0000 1.0000
vn 0.0515 -0.0000 0.9987
vn -0.0000 0.2588 0.9659
vn 0.0515 0.2585 0.9646
vn -0.0000 0.5000 0.8660
vn 0.0515 0.4993 0.8649
vn -0.0000 0.7071 0.7071
vn 0.0515 0.7062 0.7062
vn -0.0000 0.8660 0.5000
vn 0.0421 -0.2586 0.9651
vn 0.0515 0.8649 0.4993
vn -0.0000 0.9659 0.2588
vn 0.0515 0.9646 0.2585
vn -1.0000 -0.0000 -0.0000
vn 0.0421 -0.7065 0.7065
vn -0.0197 -0.4999 0.8659
vn 0.0421 -0.4996 0.8653
vn 0.0421 0.8653 0.4996
vn 0.0421 0.2586 -0.9651
vn 0.0421 -0.8653 -0.4996
vn 0.0515 -0.8649 0.4993
vn 0.0421 0.4996 0.8653
vn 0.0421 0.8653 -0.4996
vn 0.0421 0.7065 -0.7065
vn 0.0421 -0.4996 -0.8653
vn 0.0421 0.9651 -0.2586
vn 0.0421 -0.9651 0.2586
vn 0.0421 -0.0000 0.9991
vn 0.0421 0.9651 0.2586
vn 0.0421 -0.0000 -0.9991
vn 0.0421 -0.9651 -0.2586
vn 0.0515 -0.9646 -0.2585
vn 0.0421 0.7065 0.7065
vn 0.0421 0.4996 -0.8653
vn 0.0421 -0.7065 -0.7065
vn 0.0421 -0.8653 0.4996
vn 0.0421 0.2586 0.9651
vn 0.0421 0.9991 -0.0000
vn 0.0421 -0.2586 -0.9651
vn 0.0421 -0.9991 -0.0000
vn 1.0000 -0.0000 -0.0000
vn -0.0197 -0.4999 -0.8659
vn -0.0197 -0.7070 -0.7070
vn -0.0197 0.9998 -0.0000
vn -0.0197 0.8659 -0.4999
vn -0.0197 -0.2588 0.9657
vn -0.0197 -0.8659 -0.4999
vn -0.0197 0.7070 -0.7070
vn -0.0197 -0.0000 0.9998
vn -0.0197 -0.9657 -0.2588
vn -0.0197 0.4999 -0.8659
vn -0.0197 0.2588 0.9657
vn -0.0197 -0.9998 -0.0000
vn -0.0197 0.2588 -0.9657
vn -0.0197 0.4999 0.8659
vn -0.0197 -0.9657 0.2588
vn -0.0197 -0.0000 -0.9998
vn -0.0197 0.7070 0.7070
vn -0.0197 -0.8659 0.4999
vn -0.0197 -0.2588 -0.9657
vn -0.0197 0.8659 0.4999
vn -0.0197 -0.7070 0.7070
vn -0.0197 0.9657 0.2588
vn -0.0197 0.9657 -0.2588
vt 0.750000 0.490000
vt -0.000000 1.000000
vt 1.000000 1.000000
vt 0.812117 0.481822
vt 0.958333 1.000000
vt 0.870000 0.457846
vt 0.916667 1.000000
vt 0.919706 0.419706
vt 0.875000 1.000000
vt 0.957846 0.370000
vt 0.833333 1.000000
vt 0.981822 0.312117
vt 0.791667 1.000000
vt 0.990000 0.250000
vt 0.750000 1.000000
vt 0.981822 0.187883
vt 0.708333 1.000000
vt 0.957846 0.130000
vt 0.666667 1.000000
vt 0.919706 0.080294
vt 0.625000 1.000000
vt 0.870000 0.042154
vt 0.583333 1.000000
vt 0.812117 0.018178
vt 0.541666 1.000000
vt 0.750000 0.010000
vt 0.500000 1.000000
vt 0.687884 0.018178
vt 0.458333 1.000000
vt 0.630000 0.042154
vt 0.416666 1.000000
vt 0.580294 0.080294
vt 0.375000 1.000000
vt 0.542154 0.130000
vt 0.333333 1.000000
vt 0.518178 0.187883
vt 0.291667 1.000000
vt 0.510000 0.250000
vt 0.250000 1.000000
vt 0.518178 0.312116
vt 0.208333 1.000000
vt 0.542154 0.370000
vt 0.166666 1.000000
vt 0.580294 0.419706
vt 0.125000 1.000000
vt 0.630000 0.457846
vt 0.083333 1.000000
vt 0.687883 0.481822
vt 0.041666 1.000000
vt 0.958333 1.000000
vt -0.000000 1.000000
vt 1.000000 1.000000
vt 0.916667 1.000000
vt 0.875000 1.000000
vt 0.833333 1.000000
vt 0.791667 1.000000
vt 0.750000 1.000000
vt 0.708333 1.000000
vt 0.666667 1.000000
vt 0.625000 1.000000
vt 0.583333 1.000000
vt 0.541666 1.000000
vt 0.500000 1.000000
vt 0.458333 1.000000
vt 0.416666 1.000000
vt 0.375000 1.000000
vt 0.333333 1.000000
vt 0.291667 1.000000
vt 0.250000 1.000000
vt 0.208333 1.000000
vt 0.166666 1.000000
vt 0.125000 1.000000
vt 0.083333 1.000000
vt 0.041666 1.000000
vt 0.958333 1.000000
vt -0.000000 1.000000
vt 1.000000 1.000000
vt 0.916667 1.000000
vt 0.875000 1.000000
vt 0.833333 1.000000
vt 0.791667 1.000000
vt 0.750000 1.000000
vt 0.708333 1.000000
vt 0.666667 1.000000
vt 0.625000 1.000000
vt 0.583333 1.000000
vt 0.541666 1.000000
vt 0.500000 1.000000
vt 0.458333 1.000000
vt 0.416666 1.000000
vt 0.375000 1.000000
vt 0.042154 0.130000
vt 0.291667 1.000000
vt 0.250000 1.000000
vt 0.208333 1.000000
vt 0.166666 1.000000
vt 0.125000 1.000000
vt 0.083333 1.000000
vt 0.041666 1.000000
vt 1.000000 0.500000
vt -0.000000 0.500000
vt 0.958333 0.500000
vt 0.916667 0.500000
vt 0.875000 0.500000
vt 0.833333 0.500000
vt 0.791667 0.500000
vt 0.750000 0.500000
vt 0.708333 0.500000
vt 0.666667 0.500000
vt 0.625000 0.500000
vt 0.583333 0.500000
vt 0.541666 0.500000
vt 0.500000 0.500000
vt 0.458333 0.500000
vt 0.416666 0.500000
vt 0.375000 0.500000
vt 0.333333 0.500000
vt 0.291667 0.500000
vt 0.250000 0.500000
vt 0.208333 0.500000
vt 0.166666 0.500000
vt 0.125000 0.500000
vt 0.083333 0.500000
vt 0.041666 0.500000
vt 0.312117 0.481822
vt 0.250000 0.490000
vt 0.370000 0.457846
vt 0.419706 0.419706
vt 0.457846 0.370000
vt 0.481822 0.312117
vt 0.490000 0.250000
vt 0.481822 0.187883
vt 0.457846 0.130000
vt 0.419706 0.080294
vt 0.370000 0.042154
vt 0.312117 0.018178
vt 0.250000 0.010000
vt 0.187884 0.018178
vt 0.130000 0.042154
vt 0.080294 0.080294
vt 0.333333 1.000000
vt 0.018178 0.187883
vt 0.010000 0.250000
vt 0.018178 0.312116
vt 0.042154 0.370000
vt 0.080294 0.419706
vt 0.130000 0.457846
vt 0.187883 0.481822
s 1
f 2/3/1 98/102/2 97/100/3
f 4/5/4 99/103/5 98/102/2
f 6/7/6 100/104/7 99/103/5
f 8/9/8 101/105/9 100/104/7
f 10/11/10 102/106/11 101/105/9
f 12/13/12 103/107/13 102/106/11
f 14/15/14 104/108/15 103/107/13
f 16/17/16 105/109/17 104/108/15
f 18/19/18 106/110/19 105/109/17
f 20/21/20 107/111/21 106/110/19
f 22/23/22 108/112/23 107/111/21
f 108/112/23 26/27/24 109/113/25
f 26/27/24 110/114/26 109/113/25
f 28/29/27 111/115/28 110/114/26
f 111/115/28 32/33/29 112/116/30
f 32/33/29 113/117/31 112/116/30
f 34/35/32 114/118/33 113/117/31
f 36/37/34 115/119/35 114/118/33
f 38/39/36 116/120/37 115/119/35
f 40/41/38 117/121/39 116/120/37
f 42/43/40 118/122/41 117/121/39
f 44/45/42 119/123/43 118/122/41
f 34/35/32 66/68/44 36/37/34
f 46/47/45 120/124/46 119/123/43
f 48/49/47 97/101/3 120/124/46
f 15/16/48 31/32/48 47/48/48
f 64/66/49 137/141/50 65/67/51
f 44/45/42 71/73/52 46/47/45
f 10/11/10 54/56/53 12/13/12
f 20/21/20 59/61/54 22/23/22
f 30/31/55 64/66/49 32/33/29
f 40/41/38 69/71/56 42/43/40
f 8/9/8 51/53/57 52/54/58
f 16/17/16 57/59/59 18/19/18
f 2/3/1 49/50/60 4/5/4
f 26/27/24 62/64/61 28/29/27
f 38/39/36 66/68/44 67/69/62
f 46/47/45 72/74/63 48/49/47
f 12/13/12 55/57/64 14/15/14
f 22/23/22 60/62/65 24/25/66
f 32/33/29 65/67/51 34/35/32
f 42/43/40 70/72/67 44/45/42
f 10/11/10 52/54/58 53/55/68
f 18/19/18 58/60/69 20/21/20
f 28/29/27 63/65/70 30/31/55
f 40/41/38 67/69/62 68/70/71
f 48/49/47 50/51/72 2/2/1
f 4/5/4 51/53/57 6/7/6
f 14/15/14 56/58/73 16/17/16
f 24/25/66 61/63/74 26/27/24
f 139/143/75 131/135/75 123/127/75
f 58/60/69 81/84/76 82/85/77
f 72/74/63 74/76/78 50/51/72
f 49/50/60 75/78/79 51/53/57
f 65/67/51 90/93/80 66/68/44
f 58/60/69 83/86/81 59/61/54
f 51/53/57 76/79/82 52/54/58
f 66/68/44 91/94/83 67/69/62
f 59/61/54 84/87/84 60/62/65
f 52/54/58 77/80/85 53/55/68
f 67/69/62 92/95/86 68/70/71
f 60/62/65 85/88/87 61/63/74
f 53/55/68 78/81/88 54/56/53
f 68/70/71 93/96/89 69/71/56
f 61/63/74 86/89/90 62/64/61
f 55/57/64 78/81/88 79/82/91
f 70/72/67 93/96/89 94/97/92
f 62/64/61 87/90/93 63/65/70
f 55/57/64 80/83/94 56/58/73
f 70/72/67 95/98/95 71/73/52
f 63/65/70 88/91/96 64/66/49
f 56/58/73 81/84/76 57/59/59
f 72/74/63 95/98/95 96/99/97
f 50/52/72 73/75/98 49/50/60
f 2/3/1 4/5/4 98/102/2
f 4/5/4 6/7/6 99/103/5
f 6/7/6 8/9/8 100/104/7
f 8/9/8 10/11/10 101/105/9
f 10/11/10 12/13/12 102/106/11
f 12/13/12 14/15/14 103/107/13
f 14/15/14 16/17/16 104/108/15
f 16/17/16 18/19/18 105/109/17
f 18/19/18 20/21/20 106/110/19
f 20/21/20 22/23/22 107/111/21
f 22/23/22 24/25/66 108/112/23
f 108/112/23 24/25/66 26/27/24
f 26/27/24 28/29/27 110/114/26
f 28/29/27 30/31/55 111/115/28
f 111/115/28 30/31/55 32/33/29
f 32/33/29 34/35/32 113/117/31
f 34/35/32 36/37/34 114/118/33
f 36/37/34 38/39/36 115/119/35
f 38/39/36 40/41/38 116/120/37
f 40/41/38 42/43/40 117/121/39
f 42/43/40 44/45/42 118/122/41
f 44/45/42 46/47/45 119/123/43
f 34/35/32 65/67/51 66/68/44
f 46/47/45 48/49/47 120/124/46
f 48/49/47 2/2/1 97/101/3
f 47/48/48 1/1/48 3/4/48
f 3/4/48 5/6/48 7/8/48
f 7/8/48 9/10/48 11/12/48
f 11/12/48 13/14/48 15/16/48
f 15/16/48 17/18/48 19/20/48
f 19/20/48 21/22/48 23/24/48
f 23/24/48 25/26/48 27/28/48
f 27/28/48 29/30/48 31/32/48
f 31/32/48 33/34/48 35/36/48
f 35/36/48 37/38/48 39/40/48
f 39/40/48 41/42/48 43/44/48
f 43/44/48 45/46/48 47/48/48
f 47/48/48 3/4/48 7/8/48
f 7/8/48 11/12/48 15/16/48
f 15/16/48 19/20/48 23/24/48
f 23/24/48 27/28/48 31/32/48
f 31/32/48 35/36/48 39/40/48
f 39/40/48 43/44/48 47/48/48
f 47/48/48 7/8/48 15/16/48
f 15/16/48 23/24/48 31/32/48
f 31/32/48 39/40/48 47/48/48
f 64/66/49 88/91/96 137/141/50
f 44/45/42 70/72/67 71/73/52
f 10/11/10 53/55/68 54/56/53
f 20/21/20 58/60/69 59/61/54
f 30/31/55 63/65/70 64/66/49
f 40/41/38 68/70/71 69/71/56
f 8/9/8 6/7/6 51/53/57
f 16/17/16 56/58/73 57/59/59
f 2/3/1 50/52/72 49/50/60
f 26/27/24 61/63/74 62/64/61
f 38/39/36 36/37/34 66/68/44
f 46/47/45 71/73/52 72/74/63
f 12/13/12 54/56/53 55/57/64
f 22/23/22 59/61/54 60/62/65
f 32/33/29 64/66/49 65/67/51
f 42/43/40 69/71/56 70/72/67
f 10/11/10 8/9/8 52/54/58
f 18/19/18 57/59/59 58/60/69
f 28/29/27 62/64/61 63/65/70
f 40/41/38 38/39/36 67/69/62
f 48/49/47 72/74/63 50/51/72
f 4/5/4 49/50/60 51/53/57
f 14/15/14 55/57/64 56/58/73
f 24/25/66 60/62/65 61/63/74
f 123/127/75 121/125/75 122/126/75
f 122/126/75 144/148/75 143/147/75
f 143/147/75 142/146/75 141/145/75
f 141/145/75 140/144/75 139/143/75
f 139/143/75 138/142/75 89/92/75
f 89/92/75 136/140/75 135/139/75
f 135/139/75 134/138/75 133/137/75
f 133/137/75 132/136/75 131/135/75
f 131/135/75 130/134/75 129/133/75
f 129/133/75 128/132/75 127/131/75
f 127/131/75 126/130/75 125/129/75
f 125/129/75 124/128/75 123/127/75
f 123/127/75 122/126/75 143/147/75
f 143/147/75 141/145/75 139/143/75
f 139/143/75 89/92/75 135/139/75
f 135/139/75 133/137/75 131/135/75
f 131/135/75 129/133/75 127/131/75
f 127/131/75 125/129/75 123/127/75
f 123/127/75 143/147/75 139/143/75
f 139/143/75 135/139/75 131/135/75
f 131/135/75 127/131/75 123/127/75
f 58/60/69 57/59/59 81/84/76
f 72/74/63 96/99/97 74/76/78
f 49/50/60 73/75/98 75/78/79
f 65/67/51 137/141/50 90/93/80
f 58/60/69 82/85/77 83/86/81
f 51/53/57 75/78/79 76/79/82
f 66/68/44 90/93/80 91/94/83
f 59/61/54 83/86/81 84/87/84
f 52/54/58 76/79/82 77/80/85
f 67/69/62 91/94/83 92/95/86
f 60/62/65 84/87/84 85/88/87
f 53/55/68 77/80/85 78/81/88
f 68/70/71 92/95/86 93/96/89
f 61/63/74 85/88/87 86/89/90
f 55/57/64 54/56/53 78/81/88
f 70/72/67 69/71/56 93/96/89
f 62/64/61 86/89/90 87/90/93
f 55/57/64 79/82/91 80/83/94
f 70/72/67 94/97/92 95/98/95
f 63/65/70 87/90/93 88/91/96
f 56/58/73 80/83/94 81/84/76
f 72/74/63 71/73/52 95/98/95
f 50/52/72 74/77/78 73/75/98
