# Blender 3.5.0
# www.blender.org
o finger_large_p3_phy
v 0.074434 -0.021219 0.016664
v 0.069760 -0.021219 0.029304
v 0.074434 0.021219 0.016664
v 0.083273 -0.021219 0.021716
v 0.091153 -0.021219 0.028585
v 0.076765 -0.021219 0.033052
v 0.083273 0.021219 0.021716
v 0.091153 0.021219 0.028585
v 0.076765 0.021219 0.033052
v 0.083730 0.021219 0.036877
v 0.069760 0.021219 0.029304
v 0.083730 -0.021219 0.036877
v 0.074434 -0.021219 0.016664
v 0.074434 -0.021219 0.016664
v 0.069760 -0.021219 0.029304
v 0.069760 -0.021219 0.029304
v 0.074434 0.021219 0.016664
v 0.074434 0.021219 0.016664
v 0.083273 -0.021219 0.021716
v 0.091153 -0.021219 0.028585
v 0.091153 -0.021219 0.028585
v 0.083273 0.021219 0.021716
v 0.091153 0.021219 0.028585
v 0.091153 0.021219 0.028585
v 0.076765 0.021219 0.033052
v 0.083730 0.021219 0.036877
v 0.083730 0.021219 0.036877
v 0.069760 0.021219 0.029304
v 0.069760 0.021219 0.029304
v 0.083730 -0.021219 0.036877
v 0.083730 -0.021219 0.036877
v 0.076765 -0.021219 0.033052
vn -0.0000 -1.0000 -0.0000
vn -0.9379 -0.0000 -0.3469
vn 0.4962 -0.0000 -0.8682
vn 0.5795 -0.0000 -0.8150
vn 0.6571 -0.0000 -0.7538
vn -0.0000 1.0000 -0.0000
vn -0.4766 -0.0000 0.8791
vn -0.4814 -0.0000 0.8765
vn -0.4718 -0.0000 0.8817
vn 0.7451 -0.0000 0.6670
vt 0.625000 0.500000
vt 0.375000 0.500000
vt 0.625000 0.750000
vt 0.625000 0.500000
vt 0.625000 0.500000
vt 0.375000 0.500000
vt 0.625000 0.750000
vt 0.625000 0.750000
vt 0.375000 0.750000
vt 0.375000 0.750000
vt 0.375000 0.750000
vt 0.375000 0.500000
vt 0.625000 0.500000
vt 0.625000 0.500000
vt 0.375000 0.500000
vt 0.375000 0.500000
vt 0.625000 0.750000
vt 0.625000 0.750000
vt 0.625000 0.500000
vt 0.625000 0.500000
vt 0.625000 0.500000
vt 0.625000 0.750000
vt 0.625000 0.750000
vt 0.625000 0.750000
vt 0.375000 0.750000
vt 0.375000 0.750000
vt 0.375000 0.750000
vt 0.375000 0.750000
vt 0.375000 0.750000
vt 0.375000 0.500000
vt 0.375000 0.500000
vt 0.375000 0.500000
s 1
f 15/15/1 19/19/1 32/32/1
f 16/16/2 17/17/2 14/14/2
f 1/1/3 22/22/4 4/4/4
f 22/22/4 20/20/5 4/4/4
f 19/19/1 31/31/1 32/32/1
f 7/7/6 26/26/6 24/24/6
f 28/28/6 7/7/6 3/3/6
f 6/6/7 27/27/8 9/9/7
f 2/2/9 9/9/7 11/11/9
f 5/5/10 10/10/10 12/12/10
f 15/15/1 13/13/1 19/19/1
f 16/16/2 29/29/2 17/17/2
f 1/1/3 18/18/3 22/22/4
f 22/22/4 23/23/5 20/20/5
f 19/19/1 21/21/1 31/31/1
f 7/7/6 25/25/6 26/26/6
f 28/28/6 25/25/6 7/7/6
f 6/6/7 30/30/8 27/27/8
f 2/2/9 6/6/7 9/9/7
f 5/5/10 8/8/10 10/10/10
