# Blender 3.5.0
# www.blender.org
o finger_large_p4_phy
v 0.091153 -0.021219 0.028585
v 0.083730 -0.021219 0.036877
v 0.091153 0.021219 0.028585
v 0.096610 -0.021219 0.036036
v 0.099464 -0.021219 0.041320
v 0.089225 -0.021219 0.042833
v 0.096610 0.021219 0.036036
v 0.099464 0.021219 0.041320
v 0.089225 0.021219 0.042833
v 0.083730 0.021219 0.036877
v 0.093732 0.021219 0.047768
v 0.095526 0.021219 0.048856
v 0.093732 -0.021219 0.047768
v 0.095526 -0.021219 0.048856
v 0.100708 -0.021219 0.044368
v 0.096777 -0.021219 0.048989
v 0.098324 -0.021219 0.048666
v 0.096777 0.021219 0.048989
v 0.100517 -0.021219 0.046069
v 0.099789 -0.021219 0.047493
v 0.100517 0.021219 0.046069
v 0.099789 0.021219 0.047493
v 0.100708 0.021219 0.044368
v 0.098324 0.021219 0.048666
v 0.091153 -0.021219 0.028585
v 0.091153 -0.021219 0.028585
v 0.083730 -0.021219 0.036877
v 0.083730 -0.021219 0.036877
v 0.091153 0.021219 0.028585
v 0.091153 0.021219 0.028585
v 0.096610 -0.021219 0.036036
v 0.099464 -0.021219 0.041320
v 0.096610 0.021219 0.036036
v 0.099464 0.021219 0.041320
v 0.083730 0.021219 0.036877
v 0.083730 0.021219 0.036877
v 0.089225 0.021219 0.042833
v 0.093732 0.021219 0.047768
v 0.095526 0.021219 0.048856
v 0.093732 -0.021219 0.047768
v 0.095526 -0.021219 0.048856
v 0.089225 -0.021219 0.042833
v 0.096777 -0.021219 0.048989
v 0.098324 -0.021219 0.048666
v 0.100517 -0.021219 0.046069
v 0.100708 -0.021219 0.044368
v 0.099789 -0.021219 0.047493
v 0.100517 0.021219 0.046069
v 0.099789 0.021219 0.047493
v 0.100708 0.021219 0.044368
v 0.098324 0.021219 0.048666
v 0.096777 0.021219 0.048989
vn -0.7451 -0.0000 -0.6670
vn -0.0000 -1.0000 -0.0000
vn 0.8068 -0.0000 -0.5909
vn 0.8453 -0.0000 -0.5343
vn 0.9042 -0.0000 -0.4272
vn -0.0000 1.0000 -0.0000
vn -0.7349 -0.0000 0.6782
vn -0.7367 -0.0000 0.6763
vn -0.6350 -0.0000 0.7725
vn -0.3198 -0.0000 0.9475
vn 0.0499 -0.0000 0.9988
vn 0.4263 -0.0000 0.9046
vn 0.9905 -0.0000 -0.1374
vn 0.9576 -0.0000 0.2882
vn 0.7749 -0.0000 0.6321
vt 0.625000 0.500000
vt 0.375000 0.500000
vt 0.625000 0.750000
vt 0.625000 0.500000
vt 0.623360 0.500000
vt 0.375000 0.500000
vt 0.625000 0.750000
vt 0.623360 0.750000
vt 0.375000 0.750000
vt 0.375000 0.750000
vt 0.376302 0.750000
vt 0.375000 0.750000
vt 0.376302 0.500000
vt 0.375000 0.500000
vt 0.625000 0.500000
vt 0.375000 0.500000
vt 0.375000 0.500000
vt 0.375000 0.750000
vt 0.625000 0.500000
vt 0.625000 0.500000
vt 0.625000 0.750000
vt 0.625000 0.750000
vt 0.625000 0.750000
vt 0.375000 0.750000
vt 0.625000 0.500000
vt 0.625000 0.500000
vt 0.375000 0.500000
vt 0.375000 0.500000
vt 0.625000 0.750000
vt 0.625000 0.750000
vt 0.625000 0.500000
vt 0.623360 0.500000
vt 0.625000 0.750000
vt 0.623360 0.750000
vt 0.375000 0.750000
vt 0.375000 0.750000
vt 0.375000 0.750000
vt 0.376302 0.750000
vt 0.375000 0.750000
vt 0.376302 0.500000
vt 0.375000 0.500000
vt 0.375000 0.500000
vt 0.375000 0.500000
vt 0.375000 0.500000
vt 0.625000 0.500000
vt 0.625000 0.500000
vt 0.625000 0.500000
vt 0.625000 0.750000
vt 0.625000 0.750000
vt 0.625000 0.750000
vt 0.375000 0.750000
vt 0.375000 0.750000
s 1
f 36/36/1 25/25/1 27/27/1
f 28/28/2 31/31/2 42/42/2
f 30/30/3 4/4/4 1/1/3
f 33/33/4 32/32/5 4/4/4
f 42/42/2 5/5/2 13/13/2
f 35/35/6 7/7/6 3/3/6
f 37/37/6 8/8/6 7/7/6
f 2/2/7 9/9/8 10/10/7
f 6/6/8 11/11/9 9/9/8
f 40/40/9 39/39/10 11/11/9
f 38/38/6 23/23/6 8/8/6
f 13/13/2 46/46/2 14/14/2
f 14/14/2 45/45/2 43/43/2
f 41/41/10 52/52/11 39/39/10
f 16/16/11 24/24/12 52/52/11
f 43/43/2 47/47/2 17/17/2
f 50/50/13 19/19/14 15/15/13
f 48/48/14 20/20/15 19/19/14
f 18/18/6 22/22/6 21/21/6
f 12/12/6 21/21/6 23/23/6
f 34/34/5 15/15/13 32/32/5
f 20/20/15 24/24/12 44/44/12
f 36/36/1 29/29/1 25/25/1
f 28/28/2 26/26/2 31/31/2
f 30/30/3 33/33/4 4/4/4
f 33/33/4 34/34/5 32/32/5
f 42/42/2 31/31/2 5/5/2
f 35/35/6 37/37/6 7/7/6
f 37/37/6 38/38/6 8/8/6
f 2/2/7 6/6/8 9/9/8
f 6/6/8 40/40/9 11/11/9
f 40/40/9 41/41/10 39/39/10
f 38/38/6 12/12/6 23/23/6
f 13/13/2 5/5/2 46/46/2
f 14/14/2 46/46/2 45/45/2
f 41/41/10 16/16/11 52/52/11
f 16/16/11 44/44/12 24/24/12
f 43/43/2 45/45/2 47/47/2
f 50/50/13 48/48/14 19/19/14
f 48/48/14 49/49/15 20/20/15
f 18/18/6 51/51/6 22/22/6
f 12/12/6 18/18/6 21/21/6
f 34/34/5 50/50/13 15/15/13
f 20/20/15 49/49/15 24/24/12
