# Blender 3.5.0
# www.blender.org
o finger_large_p2_phy
v 0.055259 0.021219 0.026815
v 0.055259 -0.021219 0.026815
v 0.055465 0.021219 0.011418
v 0.062166 0.021219 0.027819
v 0.069760 0.021219 0.029304
v 0.062166 -0.021219 0.027819
v 0.066894 0.021219 0.014171
v 0.074434 0.021219 0.016664
v 0.066894 -0.021219 0.014171
v 0.055465 -0.021219 0.011418
v 0.074434 -0.021219 0.016664
v 0.069760 -0.021219 0.029304
v 0.055259 0.021219 0.026815
v 0.055259 0.021219 0.026815
v 0.055259 -0.021219 0.026815
v 0.055259 -0.021219 0.026815
v 0.055465 0.021219 0.011418
v 0.055465 0.021219 0.011418
v 0.062166 0.021219 0.027819
v 0.069760 0.021219 0.029304
v 0.069760 0.021219 0.029304
v 0.066894 0.021219 0.014171
v 0.074434 0.021219 0.016664
v 0.074434 0.021219 0.016664
v 0.066894 -0.021219 0.014171
v 0.055465 -0.021219 0.011418
v 0.055465 -0.021219 0.011418
v 0.074434 -0.021219 0.016664
v 0.074434 -0.021219 0.016664
v 0.069760 -0.021219 0.029304
v 0.069760 -0.021219 0.029304
v 0.062166 -0.021219 0.027819
vn -0.1438 -0.0000 0.9896
vn -0.1679 -0.0000 0.9858
vn -0.9999 -0.0000 -0.0134
vn -0.0000 1.0000 -0.0000
vn -0.1919 -0.0000 0.9814
vn 0.2342 -0.0000 -0.9722
vn 0.2743 -0.0000 -0.9616
vn 0.3139 -0.0000 -0.9495
vn -0.0000 -1.0000 -0.0000
vn 0.9379 -0.0000 0.3469
vt 0.375000 0.750000
vt 0.375000 0.500000
vt 0.625000 0.750000
vt 0.375000 0.750000
vt 0.375000 0.750000
vt 0.375000 0.500000
vt 0.625000 0.750000
vt 0.625000 0.750000
vt 0.625000 0.500000
vt 0.625000 0.500000
vt 0.625000 0.500000
vt 0.375000 0.500000
vt 0.375000 0.750000
vt 0.375000 0.750000
vt 0.375000 0.500000
vt 0.375000 0.500000
vt 0.625000 0.750000
vt 0.625000 0.750000
vt 0.375000 0.750000
vt 0.375000 0.750000
vt 0.375000 0.750000
vt 0.625000 0.750000
vt 0.625000 0.750000
vt 0.625000 0.750000
vt 0.625000 0.500000
vt 0.625000 0.500000
vt 0.625000 0.500000
vt 0.625000 0.500000
vt 0.625000 0.500000
vt 0.375000 0.500000
vt 0.375000 0.500000
vt 0.375000 0.500000
s 1
f 15/15/1 19/19/2 13/13/1
f 16/16/3 17/17/3 27/27/3
f 1/1/4 22/22/4 18/18/4
f 22/22/4 20/20/4 23/23/4
f 19/19/2 31/31/5 21/21/5
f 3/3/6 25/25/7 26/26/6
f 7/7/7 28/28/8 25/25/7
f 2/2/9 9/9/9 6/6/9
f 9/9/9 30/30/9 6/6/9
f 12/12/10 8/8/10 5/5/10
f 15/15/1 32/32/2 19/19/2
f 16/16/3 14/14/3 17/17/3
f 1/1/4 4/4/4 22/22/4
f 22/22/4 4/4/4 20/20/4
f 19/19/2 32/32/2 31/31/5
f 3/3/6 7/7/7 25/25/7
f 7/7/7 24/24/8 28/28/8
f 2/2/9 10/10/9 9/9/9
f 9/9/9 29/29/9 30/30/9
f 12/12/10 11/11/10 8/8/10
